<?xml version="1.0" encoding="UTF-8" standalone="no"?>
<!DOCTYPE svg PUBLIC "-//W3C//DTD SVG 1.1//EN" "http://www.w3.org/Graphics/SVG/1.1/DTD/svg11.dtd">
<svg width="100%" height="100%" viewBox="0 0 1200 1200" version="1.1" xmlns="http://www.w3.org/2000/svg" xmlns:xlink="http://www.w3.org/1999/xlink" xml:space="preserve" xmlns:serif="http://www.serif.com/" style="fill:#ff9900;fill-rule:evenodd;clip-rule:evenodd;stroke-linejoin:round;stroke-miterlimit:2;">
   <g>
    <rect x="0" y="0" width="1200" height="1200" fill="#ff9900" />
   </g>
    <g transform="matrix(1,0,0,1,-141.358,-178.132)">
        <path d="M1132.4,753.985L367.598,753.985C346.479,753.985 329.358,771.106 329.358,792.225C329.358,943.312 409.44,1076.03 529.372,1150.21C523.87,1156.84 520.559,1165.34 520.559,1174.63C520.559,1195.75 537.68,1212.87 558.799,1212.87L941.201,1212.87C962.32,1212.87 979.441,1195.75 979.441,1174.63C979.441,1165.34 976.13,1156.84 970.628,1150.21C1090.56,1076.03 1170.64,943.312 1170.64,792.225C1170.64,771.106 1153.52,753.985 1132.4,753.985ZM608.49,564.874C610.099,562.559 611.684,560.804 613.221,558.722C614.115,557.592 614.48,556.974 615.772,555.407L619.336,551.008L622.907,546.598L626.027,542.618L634.462,531.531C645.168,516.053 654.277,498.553 660.253,479.656C666.282,460.811 668.847,440.59 667.573,421.453C666.378,402.287 661.468,384.437 654.564,369.338C647.711,354.153 638.772,341.729 629.802,331.597C611.566,311.394 592.638,300.456 578.963,294.384C565.223,288.305 556.472,287.132 556.472,287.132C556.472,287.132 559.74,295.298 564.436,308.336C569.064,321.368 575.056,339.548 578.698,359.344C580.606,369.278 581.584,379.369 581.619,389.485C581.619,399.503 580.534,409.189 578.321,418.451C573.918,436.868 565.185,454.617 551.939,473.665L546.704,480.753L539.665,490.447L536.369,495.053C535.332,496.458 533.761,499.073 532.505,501.034C529.949,505.246 527.024,509.509 524.923,513.672C515.947,529.837 509.038,548.027 505.613,567.116C502.183,586.189 502.799,606.223 507.469,623.912C511.97,641.706 520.537,656.692 529.875,668.005C539.337,679.358 549.512,687.365 558.936,693.073C568.419,698.748 577.119,702.236 584.433,704.448C591.716,706.698 597.62,707.654 601.665,708.106C605.715,708.55 607.909,708.475 607.909,708.475C607.909,708.475 603.269,700.937 597.185,688.703C591.19,676.559 583.848,659.113 581.841,641.286C580.639,632.459 581.229,623.68 582.976,615.519C584.746,607.306 587.665,599.464 591.886,591.135C596.151,582.807 601.701,574.055 608.49,564.874ZM772.828,564.874C774.436,562.559 776.022,560.804 777.559,558.722C778.452,557.592 778.817,556.974 780.11,555.407L783.674,551.008L787.244,546.598L790.364,542.618L798.799,531.531C809.505,516.053 818.615,498.553 824.59,479.656C830.619,460.811 833.185,440.59 831.911,421.453C830.716,402.287 825.806,384.437 818.902,369.338C812.048,354.153 803.11,341.729 794.139,331.597C775.903,311.394 756.975,300.456 743.301,294.384C729.561,288.305 720.809,287.132 720.809,287.132C720.809,287.132 724.078,295.298 728.773,308.336C733.402,321.368 739.394,339.548 743.036,359.344C744.943,369.278 745.921,379.369 745.956,389.485C745.956,399.503 744.871,409.189 742.658,418.451C738.256,436.868 729.522,454.617 716.276,473.665L711.042,480.753L704.003,490.447L700.707,495.053C699.67,496.458 698.099,499.073 696.843,501.034C694.287,505.246 691.362,509.509 689.26,513.672C680.284,529.837 673.375,548.027 669.95,567.116C666.521,586.189 667.136,606.223 671.807,623.912C676.308,641.706 684.875,656.692 694.213,668.005C703.675,679.358 713.849,687.365 723.274,693.073C732.756,698.748 741.456,702.236 748.771,704.448C756.053,706.698 761.957,707.654 766.003,708.106C770.053,708.55 772.247,708.475 772.247,708.475C772.247,708.475 767.606,700.937 761.523,688.703C755.527,676.559 748.186,659.113 746.179,641.286C744.976,632.459 745.566,623.68 747.313,615.519C749.084,607.306 752.003,599.464 756.223,591.135C760.489,582.807 766.039,574.055 772.828,564.874ZM937.166,564.874C938.773,562.559 940.36,560.804 941.896,558.722C942.79,557.592 943.155,556.974 944.447,555.407L948.011,551.008L951.582,546.598L954.702,542.618L963.136,531.531C973.842,516.053 982.952,498.553 988.928,479.656C994.957,460.811 997.522,440.59 996.248,421.453C995.053,402.287 990.143,384.437 983.239,369.338C976.386,354.153 967.447,341.729 958.477,331.597C940.241,311.394 921.313,300.456 907.638,294.384C893.898,288.305 885.147,287.132 885.147,287.132C885.147,287.132 888.415,295.298 893.111,308.336C897.74,321.368 903.732,339.548 907.373,359.344C909.281,369.278 910.259,379.369 910.294,389.485C910.294,399.503 909.209,409.189 906.996,418.451C902.593,436.868 893.86,454.617 880.614,473.665L875.38,480.753L868.34,490.447L865.044,495.053C864.008,496.458 862.437,499.073 861.18,501.034C858.624,505.246 855.699,509.509 853.597,513.672C844.622,529.837 837.713,548.027 834.288,567.116C830.858,586.189 831.474,606.223 836.144,623.912C840.645,641.706 849.212,656.692 858.551,668.005C868.012,679.358 878.187,687.365 887.612,693.073C897.093,698.748 905.794,702.236 913.108,704.448C920.391,706.698 926.295,707.654 930.34,708.106C934.39,708.55 936.584,708.475 936.584,708.475C936.584,708.475 931.943,700.937 925.86,688.703C919.865,676.559 912.523,659.113 910.517,641.286C909.313,632.459 909.903,623.68 911.651,615.519C913.421,607.306 916.341,599.464 920.561,591.135C924.826,582.807 930.377,574.055 937.166,564.874Z" style="fill:white;fill-rule:nonzero;"/>
    </g>
</svg>
