<svg xmlns="http://www.w3.org/2000/svg"><defs><style>.icon { display: none; }.icon:target { display: inline; }</style></defs><svg viewBox="0 0 207.228 216.87732"><g id="beer" class="icon">
 <defs>
    <style>
      .cls-3{fill:#f0c90f}.cls-7{fill:#020403;opacity:.35}.cls-9{fill:#fff}
    </style>
  </defs>
  <g id="group-44svg">
    <path d="M207.217 79.266c0 6.027-4.885 10.913-10.911 10.913s-10.911-4.886-10.911-10.913c0-6.025 4.885-10.911 10.911-10.911s10.911 4.886 10.911 10.911Z" id="path-1" class="cls-3" fill-rule="evenodd"/>
    <path d="M32.723 10.902c0 6.026-4.885 10.912-10.911 10.912s-10.911-4.886-10.911-10.912c0-6.027 4.885-10.911 10.911-10.911s10.911 4.884 10.911 10.911Z" id="path-2" class="cls-3" fill-rule="evenodd"/>
    <path d="M145.161 177.199h24.243v-61.711h-33.287v14.707h20.293v33.794h-20.293v13.21h9.044Z" id="path-3" class="cls-3" fill-rule="evenodd"/>
    <path d="M138.55 86.836v108.56c0 11.367-7.625 21.473-18.992 21.473H47.524c-11.366 0-19.169-10.106-19.169-21.473V86.836H138.55Z" id="path-4" class="cls-3" fill-rule="evenodd"/>
    <path d="M138.55 86.836h-22.039v10.168c-2.021-1.434-3.888-3.072-5.528-4.923-5.881 6.638-14.445 10.847-24.012 10.847-11.648 0-21.815-6.225-27.441-15.51-5.625 9.285-15.793 15.51-27.442 15.51-1.265 0-2.506-.095-3.733-.238v17.824c11.362-.238 21.253-6.362 26.767-15.464 5.626 9.284 15.793 15.509 27.441 15.509 9.567 0 18.132-4.208 24.012-10.847a32.34 32.34 0 0 0 9.936 7.551v78.133c0 11.367-7.625 21.473-18.991 21.473h22.038c11.367 0 18.992-10.106 18.992-21.473V86.836Z" id="path-5" class="cls-7" fill-rule="evenodd"/>
    <path d="M134.994 43.135c-9.566 0-21.649 6.231-22.221 5.675 7.04-3.618 8.436-7.505 8.436-15.966 0-12.045-9.765-21.809-21.809-21.809s-21.808 9.764-21.808 21.809c0 1.44-9.918-4.658-17.109-4.658-9.975 0-18.367 6.706-20.963 15.849-2.389-.567-4.869-.9-7.432-.9-17.728 0-32.099 14.372-32.099 32.1 0 17.729 14.371 32.101 32.099 32.101 11.649 0 21.817-6.225 27.442-15.51 5.626 9.285 15.793 15.51 27.441 15.51 9.567 0 18.131-4.209 24.012-10.847 5.881 6.638 14.445 10.847 24.011 10.847 17.728 0 32.099-14.372 32.099-32.101 0-17.728-14.371-32.1-32.099-32.1Z" id="path-6" fill-rule="evenodd" style="fill:#ffffcf"/>
    <path d="M11.725 85.236a3.615 3.615 0 0 1-3.599-4.011c1.102-9.968 6.398-19.072 14.529-24.979a3.616 3.616 0 0 1 4.25 5.849c-6.49 4.713-10.715 11.976-11.592 19.924a3.615 3.615 0 0 1-3.588 3.217Z" id="path-7" class="cls-9" fill-rule="evenodd"/>
    <path d="M48.343 48.24a3.616 3.616 0 0 1-2.743-5.966 25.37 25.37 0 0 1 19.291-8.887 3.615 3.615 0 1 1 0 7.23c-5.31 0-10.34 2.318-13.799 6.359a3.604 3.604 0 0 1-2.749 1.264Z" id="path-8" class="cls-9" fill-rule="evenodd"/>
    <path d="M50.714 87.418c-5.625 9.285-15.793 15.51-27.441 15.51-3.382 0-6.64-.53-9.701-1.5 5.235 3.707 11.613 5.907 18.516 5.907 10.226 0 19.307-4.8 25.179-12.254-2.551-2.206-4.795-4.762-6.553-7.663Z" id="path-9" class="cls-7" fill-rule="evenodd"/>
    <path d="M112.393 28.436c0 8.461-1.396 12.348-8.437 15.966.467.453 8.573-3.597 16.734-5.114.364-1.827.519-3.913.519-6.444 0-10.334-7.207-18.943-16.856-21.194 4.869 4 8.04 9.992 8.04 16.786Z" id="path-10" class="cls-7" fill-rule="evenodd"/>
    <path d="M102.167 92.081c-5.88 6.638-14.445 10.847-24.011 10.847-3.401 0-6.65-.586-9.722-1.568 5.236 3.736 11.611 5.975 18.537 5.975 8.74 0 16.618-3.537 22.403-9.207a32.518 32.518 0 0 1-7.207-6.047Z" id="path-11" class="cls-7" fill-rule="evenodd"/>
    <path d="M144.695 44.636c8.209 5.814 13.582 15.366 13.582 26.191 0 17.728-14.37 32.101-32.099 32.101-3.378 0-6.621-.549-9.675-1.522 5.226 3.715 11.589 5.929 18.491 5.929 17.728 0 32.099-14.371 32.099-32.1 0-14.345-9.413-26.487-22.398-30.599Z" id="path-12" class="cls-7" fill-rule="evenodd"/>
    <path d="M68.026 200.649a3.616 3.616 0 0 1-3.615-3.615v-70.526a3.615 3.615 0 0 1 7.23 0v70.526a3.616 3.616 0 0 1-3.615 3.615Z" id="path-13" class="cls-7" fill-rule="evenodd"/>
    <path d="M98.881 200.649a3.617 3.617 0 0 1-3.616-3.615v-70.526a3.616 3.616 0 0 1 7.229 0v70.526a3.615 3.615 0 0 1-3.613 3.615Z" id="path-14" class="cls-7" fill-rule="evenodd"/>
  </g>
</g></svg><svg viewBox="0 0 216.87468 155.42932"><g id="camera" class="icon">
  <defs>
    <style>
      .cam-4{fill:#020403;opacity:.35}.cam-7{fill:#142a3b}
    </style>
  </defs>
  <g id="group-128svg">
    <path d="M215.24 155.428H1.616a1.625 1.625 0 0 1-1.625-1.625V27.602c0-.898.728-1.625 1.625-1.625H215.24c.897 0 1.625.727 1.625 1.625v126.201c0 .898-.728 1.625-1.625 1.625Z" id="path-1" fill-rule="evenodd" style="fill:#555"/>
    <path d="M209.532 25.977h-6.205V139.07a7.331 7.331 0 0 1-7.332 7.332H-.009v1.693a7.332 7.332 0 0 0 7.333 7.333h202.208a7.333 7.333 0 0 0 7.333-7.333V33.31a7.333 7.333 0 0 0-7.333-7.333Z" id="path-2" class="cam-4" fill-rule="evenodd"/>
    <path d="M183.586 89.434c0-29.128-23.611-52.739-52.738-52.739S78.111 60.306 78.111 89.434c0 29.128 23.61 52.738 52.737 52.738 29.127 0 52.738-23.61 52.738-52.738Z" id="path-3" fill-rule="evenodd" style="fill:#ededed"/>
    <path d="M130.848 36.412c-1.523 0-3.021.102-4.512.228 27.01 2.294 48.226 24.907 48.226 52.511 0 27.605-21.216 50.219-48.226 52.511 1.491.127 2.989.228 4.512.228 29.127 0 52.738-23.61 52.738-52.739 0-29.127-23.611-52.739-52.738-52.739Z" id="path-4" class="cam-4" fill-rule="evenodd"/>
    <path d="M94.751 88.535a3.614 3.614 0 0 1-3.615-3.614c0-18.149 14.763-32.913 32.912-32.913a3.615 3.615 0 1 1 0 7.229c-14.162 0-25.683 11.521-25.683 25.684a3.614 3.614 0 0 1-3.614 3.614Z" id="path-5" class="cam-7" fill-rule="evenodd"/>
    <path d="M65.618 61.391a3.614 3.614 0 0 1-3.615 3.615H36.235a3.614 3.614 0 0 1-3.615-3.615V50.622a3.614 3.614 0 0 1 3.615-3.614h25.768a3.614 3.614 0 0 1 3.615 3.614v10.769Z" id="path-6" class="cam-4" fill-rule="evenodd"/>
    <path d="M58.619 58.391a3.616 3.616 0 0 1-3.615 3.616H29.235a3.616 3.616 0 0 1-3.615-3.616V47.622a3.615 3.615 0 0 1 3.615-3.615h25.769a3.615 3.615 0 0 1 3.615 3.615v10.769Z" id="path-7" fill-rule="evenodd" style="fill:#ff3a2f"/>
    <path d="M180.483 26.006h-99.27L85.725.008h90.247l4.511 25.998Z" id="path-8" class="cam-7" fill-rule="evenodd"/>
    <path d="M175.972.328h-12.033l.658 2.528c1.231 7.379-4.46 14.097-11.941 14.097l-70.849 5.458-.594 3.566h99.27L175.972.328Z" id="path-9" class="cam-4" fill-rule="evenodd"/>
    <path d="M57.619 26.006H32.62v-7.998h24.999v7.998Z" id="path-10" class="cam-7" fill-rule="evenodd"/>
  </g>
</g></svg><svg viewBox="0 0 170.18134 216.89467"><g id="chef-hat" class="icon">
  <defs>
    <style>.cls-4 { fill: rgb(204, 204, 204); }.cls-8 { fill: rgb(2, 4, 3); opacity: 0.35; }</style>
  </defs>
  <g id="group-99svg">
    <path d="M137.104 23.651a32.925 32.925 0 0 0-15.636 3.924C116.99 11.685 102.421.015 85.104.015c-17.325 0-31.894 11.67-36.381 27.56a32.91 32.91 0 0 0-15.617-3.924C14.82 23.651.002 38.471.002 56.743c0 18.281 14.172 33.091 33.08 33.091v127.061h103.999V89.834c18.909 0 33.1-14.81 33.1-33.091 0-18.272-14.81-33.092-33.077-33.092Z" id="path-1" fill-rule="evenodd" style="fill: rgb(255, 255, 255);"/>
    <path d="M61.445 182.691a3.616 3.616 0 0 1-3.614-3.614v-37.819a3.616 3.616 0 0 1 3.614-3.616 3.616 3.616 0 0 1 3.615 3.616v37.819a3.615 3.615 0 0 1-3.615 3.614Z" id="path-2" class="cls-4" fill-rule="evenodd"/>
    <path d="M85.082 182.691a3.615 3.615 0 0 1-3.614-3.614v-47.274a3.614 3.614 0 1 1 7.228 0v47.274a3.615 3.615 0 0 1-3.614 3.614Z" id="path-3" class="cls-4" fill-rule="evenodd"/>
    <path d="M108.718 182.691a3.616 3.616 0 0 1-3.615-3.614v-37.819a3.616 3.616 0 1 1 7.229 0v37.819a3.615 3.615 0 0 1-3.614 3.614Z" id="path-4" class="cls-4" fill-rule="evenodd"/>
    <path d="M137.081 216.895H33.082v-41.892h103.999v41.892Z" id="path-5" fill-rule="evenodd" style="fill: rgb(237, 237, 237);"/>
    <path d="M18.924 33.106c5.641 0 19.11 4.82 23.763 7.32 1.289-4.564 3.433-8.764 6.212-12.455-2.216-2.404-13.159-4.32-15.794-4.32-9.888 0-18.736 4.357-24.802 11.228a32.985 32.985 0 0 1 10.621-1.773Z" id="path-6" class="cls-8" fill-rule="evenodd"/>
    <path d="M137.104 23.651a32.923 32.923 0 0 0-15.636 3.924C116.99 11.685 102.421.015 85.104.015c-10.85 0-20.618 4.581-27.508 11.906a37.58 37.58 0 0 1 13.327-2.452c17.317 0 31.885 11.672 36.364 27.562a32.896 32.896 0 0 1 15.635-3.925c18.267 0 33.077 14.819 33.077 33.091 0 8.401-3.023 16.046-8.097 21.88 13.242-4.415 22.279-16.758 22.279-31.335 0-18.271-14.81-33.091-33.077-33.091Z" id="path-7" class="cls-8" fill-rule="evenodd"/>
    <path d="M122.899 92.622v81.726h14.181v-84.82c-4.256 1.966-9.034 3.094-14.181 3.094Z" id="path-8" class="cls-8" fill-rule="evenodd"/>
    <path d="M122.899 175.003v14.329c0 7.39-5.99 13.379-13.379 13.379H33.082v14.182H137.08v-41.89h-14.181Z" id="path-9" fill-rule="evenodd" style="fill: rgb(2, 4, 3); opacity: 0.25;"/>
  </g>
</g></svg><svg viewBox="0 0 215.54668 122.557335"><g id="colander" class="icon">
  <defs>
    <style>.col-cls-3{fill:#3c9cc3}.col-cls-5{fill:#000;opacity:.35}.col-cls-9{fill:#3c9cc3}</style>
  </defs>
  <g id="group-118svg">
    <path d="M107.776 97.661c50.766 0 91.921-41.154 91.921-91.917H15.855c0 50.763 41.155 91.917 91.921 91.917Z" id="path-1" class="col-cls-3" fill-rule="evenodd"/>
    <path d="M107.776 97.661c-12.845 0-25.07-2.642-36.173-7.401l-5.982 19.739c-1.894 6.25 2.784 12.557 9.316 12.557h66.423c6.305 0 10.946-5.902 9.46-12.028l-5.107-21.066a91.522 91.522 0 0 1-37.937 8.199Z" id="path-2" class="col-cls-3" fill-rule="evenodd"/>
    <path d="M68.909 99.147a91.569 91.569 0 0 0 38.867 8.616c14.395 0 28.012-3.313 40.142-9.21l-2.205-9.091a91.538 91.538 0 0 1-37.937 8.199c-12.845 0-25.071-2.642-36.174-7.401l-2.693 8.887Z" id="path-3" class="col-cls-5" fill-rule="evenodd"/>
    <path d="M207.676 7.021H7.876a3.511 3.511 0 0 1 0-7.023h199.8a3.512 3.512 0 0 1 0 7.023Z" id="path-4" class="col-cls-3" fill-rule="evenodd"/>
    <path d="M5.142 24.864h21.426a5.136 5.136 0 1 0 0-10.272H5.142a5.135 5.135 0 0 0 0 10.272Z" id="path-5" class="col-cls-3" fill-rule="evenodd"/>
    <path d="M188.984 24.864h21.426a5.136 5.136 0 1 0 0-10.272h-21.426a5.136 5.136 0 0 0 0 10.272Z" id="path-6" class="col-cls-3" fill-rule="evenodd"/>
    <path d="M66.313 29.346a4.483 4.483 0 1 1-8.966 0 4.483 4.483 0 0 1 8.966 0Z" id="path-7" class="col-cls-9" fill-rule="evenodd"/>
    <path d="M40.779 29.346a4.483 4.483 0 1 1-8.966 0 4.483 4.483 0 0 1 8.966 0Z" id="path-8" class="col-cls-9" fill-rule="evenodd"/>
    <path d="M99.506 29.346a4.482 4.482 0 1 1-8.964.002 4.482 4.482 0 0 1 8.964-.002Z" id="path-9" class="col-cls-9" fill-rule="evenodd"/>
    <path d="M168.447 29.346a4.482 4.482 0 1 1-8.964.002 4.482 4.482 0 0 1 8.964-.002Z" id="path-10" class="col-cls-9" fill-rule="evenodd"/>
    <path d="M122.487 49.773a4.483 4.483 0 1 1-8.965-.001 4.483 4.483 0 0 1 8.965.001Z" id="path-11" class="col-cls-9" fill-rule="evenodd"/>
    <path d="M89.293 49.773a4.483 4.483 0 1 1-8.965-.001 4.483 4.483 0 0 1 8.965.001Z" id="path-12" class="col-cls-9" fill-rule="evenodd"/>
    <path d="M163.341 49.773a4.484 4.484 0 1 1-8.967-.003 4.484 4.484 0 0 1 8.967.003Z" id="path-13" class="col-cls-9" fill-rule="evenodd"/>
    <path d="M142.914 67.646a4.481 4.481 0 0 1-4.483 4.482 4.483 4.483 0 1 1 4.483-4.482Z" id="path-14" class="col-cls-9" fill-rule="evenodd"/>
    <path d="M109.72 70.2a4.483 4.483 0 1 1-8.967-.003 4.483 4.483 0 0 1 8.967.003Z" id="path-15" class="col-cls-9" fill-rule="evenodd"/>
    <path d="M58.653 49.773a4.483 4.483 0 1 1-8.965-.001 4.483 4.483 0 0 1 8.965.001Z" id="path-16" class="col-cls-9" fill-rule="evenodd"/>
    <path d="M140.36 31.9a4.483 4.483 0 1 1-8.965 0 4.483 4.483 0 0 1 8.965 0Z" id="path-17" class="col-cls-9" fill-rule="evenodd"/>
    <path d="M61.83 24.864c-.597 0-1.162.127-1.684.339a4.475 4.475 0 0 1 2.799 4.143 4.475 4.475 0 0 1-2.799 4.144 4.478 4.478 0 0 0 1.684.339 4.483 4.483 0 1 0 0-8.965Z" id="path-18" class="col-cls-5" fill-rule="evenodd"/>
    <path d="M36.296 24.864c-.597 0-1.163.127-1.684.339a4.474 4.474 0 0 1 2.8 4.143 4.475 4.475 0 0 1-2.8 4.144 4.474 4.474 0 0 0 1.684.339 4.483 4.483 0 1 0 0-8.965Z" id="path-19" class="col-cls-5" fill-rule="evenodd"/>
    <path d="M95.024 24.864c-.598 0-1.163.127-1.684.339a4.475 4.475 0 0 1 2.799 4.143 4.475 4.475 0 0 1-2.799 4.144 4.47 4.47 0 0 0 1.684.339 4.482 4.482 0 0 0 0-8.965Z" id="path-20" class="col-cls-5" fill-rule="evenodd"/>
    <path d="M163.964 24.864c-.597 0-1.162.127-1.684.339a4.474 4.474 0 0 1 2.8 4.143 4.475 4.475 0 0 1-2.8 4.144 4.478 4.478 0 0 0 1.684.339 4.482 4.482 0 1 0 0-8.965Z" id="path-21" class="col-cls-5" fill-rule="evenodd"/>
    <path d="M118.004 45.289c-.598 0-1.162.129-1.684.342a4.47 4.47 0 0 1 2.799 4.142 4.473 4.473 0 0 1-2.799 4.143 4.455 4.455 0 0 0 1.684.339 4.483 4.483 0 1 0 0-8.966Z" id="path-22" class="col-cls-5" fill-rule="evenodd"/>
    <path d="M84.81 45.289c-.597 0-1.162.129-1.683.342a4.472 4.472 0 0 1 2.799 4.142 4.474 4.474 0 0 1-2.799 4.143 4.45 4.45 0 0 0 1.683.339 4.483 4.483 0 1 0 0-8.966Z" id="path-23" class="col-cls-5" fill-rule="evenodd"/>
    <path d="M158.858 45.289c-.598 0-1.163.129-1.684.342a4.47 4.47 0 0 1 2.799 4.142 4.473 4.473 0 0 1-2.799 4.143 4.451 4.451 0 0 0 1.684.339 4.483 4.483 0 1 0 0-8.966Z" id="path-24" class="col-cls-5" fill-rule="evenodd"/>
    <path d="M138.431 63.163c-.597 0-1.163.128-1.684.34a4.474 4.474 0 0 1 2.799 4.143 4.473 4.473 0 0 1-2.799 4.143 4.474 4.474 0 0 0 1.684.339 4.483 4.483 0 1 0 0-8.965Z" id="path-25" class="col-cls-5" fill-rule="evenodd"/>
    <path d="M105.237 65.717c-.597 0-1.163.128-1.684.34a4.474 4.474 0 0 1 2.8 4.143 4.471 4.471 0 0 1-2.8 4.141 4.437 4.437 0 0 0 1.684.341 4.483 4.483 0 0 0 0-8.965Z" id="path-26" class="col-cls-5" fill-rule="evenodd"/>
    <path d="M54.17 45.289c-.597 0-1.163.129-1.684.342a4.47 4.47 0 0 1 2.799 4.142 4.473 4.473 0 0 1-2.799 4.143 4.455 4.455 0 0 0 1.684.339 4.483 4.483 0 1 0 0-8.966Z" id="path-27" class="col-cls-5" fill-rule="evenodd"/>
    <path d="M135.878 27.418c-.597 0-1.163.127-1.685.339a4.472 4.472 0 0 1 2.8 4.143 4.473 4.473 0 0 1-2.8 4.143c.522.212 1.088.34 1.685.34a4.483 4.483 0 0 0 0-8.965Z" id="path-28" class="col-cls-5" fill-rule="evenodd"/>
    <path d="M198.639 19.727c.634-4.148.967-8.396 1.026-12.706H15.887c.059 4.31-.339 2.203.294 6.353l182.458 6.353Z" id="path-29" class="col-cls-5" fill-rule="evenodd"/>
  </g>
</g></svg><svg viewBox="0 0 129.49867 216.87999"><g id="jar" class="icon">
 <defs>
    <style>
      .jar-5{fill:#142a3b}
    </style>
  </defs>
  <g id="group-154svg">
    <path d="M93.778 20.402H35.731L.009 51.658v139.695c0 14.094 11.427 25.52 25.52 25.52h78.452c14.093 0 25.518-11.426 25.518-25.52V51.658L93.778 20.402Z" id="path-1" fill-rule="evenodd" style="fill:#e6191e"/>
    <path d="M93.778 20.402H33.179l46.559 20.111c10.86 4.691 18.442 15.199 18.504 27.03l.001.229v110.185c0 14.094-11.425 25.52-25.519 25.52H3.07c4.315 7.976 12.753 13.396 22.459 13.396h78.451c14.094 0 25.519-11.426 25.519-25.52V51.658L93.778 20.402Z" id="path-2" fill-rule="evenodd" style="fill:#010101;opacity:.25"/>
    <path d="M42.911 105.427H6.765c-1.996 0-3.614-1.504-3.614-3.5 0-1.995 1.618-3.499 3.614-3.499h36.146c1.996 0 3.614 1.504 3.614 3.499 0 1.996-1.618 3.5-3.614 3.5Z" id="path-3" class="jar-5" fill-rule="evenodd"/>
    <path d="M42.911 155.426H6.765c-1.996 0-3.614-1.504-3.614-3.5s1.618-3.5 3.614-3.5h36.146c1.996 0 3.614 1.504 3.614 3.5s-1.618 3.5-3.614 3.5Z" id="path-4" class="jar-5" fill-rule="evenodd"/>
    <path d="M42.911 130.427H6.765c-1.996 0-3.614-1.504-3.614-3.5 0-1.997 1.618-3.501 3.614-3.501h36.146c1.996 0 3.614 1.504 3.614 3.501 0 1.996-1.618 3.5-3.614 3.5Z" id="path-5" class="jar-5" fill-rule="evenodd"/>
    <path d="M109.802 23.348H19.708a3.18 3.18 0 0 1-3.18-3.179V3.173a3.179 3.179 0 0 1 3.18-3.179h90.094a3.179 3.179 0 0 1 3.18 3.179v16.996a3.18 3.18 0 0 1-3.18 3.179Z" id="path-6" fill-rule="evenodd" style="fill:#53c837"/>
    <path d="M101.511.014c1.567 1.988 2.54 4.464 2.54 7.191 0 6.449-5.228 11.677-11.677 11.677h-73.1c-.07 0-.136-.019-.205-.02 2.137 2.712 5.413 4.486 9.135 4.486h73.1c6.45 0 11.677-5.229 11.677-11.678 0-6.378-5.118-11.543-11.47-11.656Z" id="path-7" fill-rule="evenodd" style="fill:#010101;opacity:.35"/>
    <path d="M22.211 84.583a5.421 5.421 0 0 1-5.421-5.423V55.084l18.348-19.427a5.418 5.418 0 0 1 7.664-.219 5.419 5.419 0 0 1 .219 7.662L27.634 59.395V79.16a5.422 5.422 0 0 1-5.423 5.423Z" id="path-8" fill-rule="evenodd" style="fill:#fff"/>
  </g>
</g></svg><svg viewBox="0 0 216.87387 174.0831"><g id="luggage-trolley" class="icon">
  <defs>
    <style>
      .lug-3{fill:#142a3b}.lug-6{fill:#ff3a2f}.lug-8{fill:#020403;opacity:.45}
    </style>
  </defs>
  <g id="group-36svg">
    <path d="M154.3 36.931H86.289V10.166H154.3v26.765Zm-60.782-7.228h53.553V17.396H93.518v12.307Z" id="path-1" class="lug-3" fill-rule="evenodd"/>
    <path d="M192.586 124.939H48.003a6.427 6.427 0 0 1-6.425-6.427V35.8a6.426 6.426 0 0 1 6.425-6.426h144.583a6.426 6.426 0 0 1 6.426 6.426v82.712a6.427 6.427 0 0 1-6.426 6.427Z" id="path-2" fill-rule="evenodd" style="fill:#0cb04a"/>
    <path d="M173.672 29.374h-1.376c4.328 4.546 7 10.682 7 17.454v44.884c0 13.994-11.345 25.341-25.34 25.341H48.578c4.615 4.849 11.116 7.886 18.339 7.886h106.755c13.995 0 25.34-11.347 25.34-25.341V54.715c0-13.996-11.345-25.341-25.34-25.341Z" id="path-3" fill-rule="evenodd" style="fill:#020403;opacity:.35"/>
    <path d="M69.637 152.031a14.103 14.103 0 0 0-2.393 7.875c0 7.829 6.347 14.176 14.175 14.176 7.829 0 14.175-6.347 14.175-14.176 0-2.915-.883-5.622-2.393-7.875H69.637Z" id="path-4" class="lug-6" fill-rule="evenodd"/>
    <path d="M140.513 152.031a14.11 14.11 0 0 0-2.393 7.875c0 7.829 6.347 14.176 14.176 14.176s14.175-6.347 14.175-14.176c0-2.915-.884-5.622-2.393-7.875h-23.565Z" id="path-5" class="lug-6" fill-rule="evenodd"/>
    <path d="M69.637 152.031a14.103 14.103 0 0 0-2.393 7.875c0 1.086.148 2.133.379 3.15h27.592c.232-1.017.379-2.064.379-3.15 0-2.915-.883-5.622-2.393-7.875H69.637Z" id="path-6" class="lug-8" fill-rule="evenodd"/>
    <path d="M140.513 152.031a14.11 14.11 0 0 0-2.393 7.875c0 1.086.148 2.133.38 3.15h27.592c.231-1.017.379-2.064.379-3.15 0-2.915-.884-5.622-2.393-7.875h-23.565Z" id="path-7" class="lug-8" fill-rule="evenodd"/>
    <path d="M43.85 155.652c-18.139 0-32.844-14.705-32.844-32.844V32.381c0-5.975-2.784-11.303-7.126-14.754C-.78 13.923-1.395 7.11 2.814 2.9 5.504.21 9.54-.749 13.092.615c7.07 2.713 12.089 9.566 12.089 17.592v90.425c0 18.14 14.705 32.845 32.844 32.845h151.599a7.24 7.24 0 0 1 7.241 7.24 7.243 7.243 0 0 1-7.257 7.243l-165.758-.308Z" id="path-8" class="lug-3" fill-rule="evenodd"/>
    <path d="M170.086 124.939h-7.229V31.265h7.229v93.674Z" id="path-9" class="lug-3" fill-rule="evenodd"/>
    <path d="M77.946 124.939h-7.229V31.265h7.229v93.674Z" id="path-10" class="lug-3" fill-rule="evenodd"/>
  </g>
</g></svg><svg viewBox="0 0 215.55135 219.05469"><g id="magic-stick" class="icon">
 <defs>
    <style>
      .mst-5{fill:#000;opacity:.25}
    </style>
  </defs>
  <g id="group-124svg">
    <path d="M211.958 219.054a3.57 3.57 0 0 1-2.561-1.073L83.218 89.687a3.593 3.593 0 0 1 5.122-5.038l126.179 128.296a3.591 3.591 0 0 1-2.561 6.109Z" id="path-1" fill-rule="evenodd" style="fill:#142a3b"/>
    <path d="m17.22 17.511 51.631 17.498L103.271.014l-5.737 52.494 51.631 29.163-55.942 13.116-12.899 56.876-28.683-52.494L.01 105.002l34.42-34.997-17.21-52.494Z" id="path-2" fill-rule="evenodd" style="fill:#fbb713"/>
    <path d="m90.461 45.388 7.395 4.177L103.271.014l-8.834 8.98-3.976 36.394Z" id="path-3" class="mst-5" fill-rule="evenodd"/>
    <path d="M138.182 75.468 86.149 87.666l-11.965 52.761 6.14 11.236 12.899-56.876 55.942-13.116-10.983-6.203Z" id="path-4" class="mst-5" fill-rule="evenodd"/>
    <path d="M44.567 92.049 8.772 96.094.01 105.002l48.633-5.495-4.076-7.458Z" id="path-5" class="mst-5" fill-rule="evenodd"/>
  </g>
</g></svg><svg viewBox="0 0 175.31444 216.87999"><g id="noodles" class="icon">
  <defs>
    <style>
      .nood-3{fill:#142a3b}.nood-5{fill:#0cb04a}.nood-9{fill:#e6191e}.nood-14{fill:#020403;opacity:.35}
    </style>
  </defs>
  <g id="group-147svg">
    <path d="m126.708 1.616 6.024-1.63 4.785 4.006-6.906 5.624-3.903-8Z" id="path-1" class="nood-3" fill-rule="evenodd"/>
    <path d="m131.319 6.41-26.37 119.801L137.517 3.992l-6.198 2.418Z" id="path-2" class="nood-3" fill-rule="evenodd"/>
    <path d="m131.319 6.41-26.37 119.801L126.708 1.616l4.611 4.794Z" id="path-3" class="nood-5" fill-rule="evenodd"/>
    <path d="m165.769 14.211 6.226.407 3.236 5.336-8.349 3.09-1.113-8.833Z" id="path-4" class="nood-3" fill-rule="evenodd"/>
    <path d="m168.587 20.234-63.638 104.875 70.282-105.155-6.644.28Z" id="path-5" class="nood-3" fill-rule="evenodd"/>
    <path d="m168.587 20.234-63.638 104.875 60.82-110.898 2.818 6.023Z" id="path-6" class="nood-5" fill-rule="evenodd"/>
    <path d="M110.719 190.117h-46.21l-14.06 26.749h74.328l-14.058-26.749Z" id="path-7" class="nood-9" fill-rule="evenodd"/>
    <path d="m63.558 188.39-6.348 12.075c10.465 5.516 22.1 8.614 34.373 8.614 9.251 0 18.133-1.771 26.434-4.994l-8.248-15.695H63.558Z" id="path-8" fill-rule="evenodd" style="fill:#a72425"/>
    <path d="M135.342 86.658c-.442 0-.872.025-1.31.036-4.801-2.46-11.269-3.979-18.406-3.979-9.745 0-18.25 2.823-22.938 7.03-4.549-1.928-10.266-3.087-16.494-3.087-.441 0-.872.025-1.309.036-4.802-2.46-11.269-3.979-18.407-3.979-10.543 0-19.637 3.302-24.009 8.09-12.75 1.113-22.497 7.075-22.497 14.285 0 8.001 11.995 14.487 26.791 14.487 9.745 0 18.25-2.824 22.938-7.031 4.55 1.929 10.266 3.086 16.493 3.086.443 0 .874-.022 1.311-.034 4.801 2.46 11.269 3.979 18.405 3.979 9.746 0 18.25-2.824 22.938-7.031 4.55 1.929 10.266 3.086 16.494 3.086 14.796 0 26.791-6.485 26.791-14.485 0-8.002-11.995-14.489-26.791-14.489Z" id="path-9" fill-rule="evenodd" style="fill:#fbb713"/>
    <path d="M170.009 112.639c0 52.181-36.891 94.48-82.394 94.48-45.505 0-82.395-42.299-82.395-94.48h164.789Z" id="path-10" class="nood-9" fill-rule="evenodd"/>
    <path d="M66.143 192.083a3.582 3.582 0 0 1-1.988-.599c-21.953-14.495-36.849-39.208-40.87-67.804a3.614 3.614 0 0 1 3.077-4.083c1.978-.287 3.803 1.099 4.082 3.077 3.731 26.543 17.471 49.424 37.693 62.778a3.613 3.613 0 0 1-1.994 6.631Z" id="path-11" fill-rule="evenodd" style="fill:#fff"/>
    <path d="M19.013 112.639H5.218c0 40.523 22.25 75.071 53.5 88.49l-8.269 15.737h6.222l6.883-15.737c-26.016-13.419-44.541-47.967-44.541-88.49Z" id="path-12" class="nood-14" fill-rule="evenodd"/>
    <path d="M170.008 112.639h-13.797c0 .671-.019 1.335-.028 2H21.205l134.665 7.279c-2.581 36.454-20.194 66.832-44.2 79.217l6.881 15.731h6.226l-8.267-15.731c31.248-13.425 53.498-47.973 53.498-88.496Z" id="path-13" class="nood-14" fill-rule="evenodd"/>
    <path d="M175.231 110.489a4.15 4.15 0 0 1-4.151 4.15H4.141a4.15 4.15 0 1 1 0-8.3H171.08a4.148 4.148 0 0 1 4.151 4.15Z" id="path-14" class="nood-9" fill-rule="evenodd"/>
  </g>
</g></svg><svg viewBox="0 0 215.5387 171.772"><g id="outbox" class="icon">
   <defs>
    <style>
      .out-5{fill:#cc7a00}.out-7{fill:#000;opacity:.35}
    </style>
  </defs>
  <g id="group-46svg">
    <path d="M-.007 55.015v112.256a4.487 4.487 0 0 0 4.491 4.49h206.559a4.486 4.486 0 0 0 4.49-4.49V55.015H-.007Z" id="path-1" fill-rule="evenodd" style="fill:#f59300"/>
    <path d="M147.606 80.813H75.759c-9.911 0-17.963 8.06-17.963 17.962 0 9.9 8.052 17.96 17.963 17.96h71.847c9.902 0 17.961-8.06 17.961-17.96 0-9.902-8.059-17.962-17.961-17.962Zm0 26.942H75.759c-4.951 0-8.981-4.026-8.981-8.98 0-4.956 4.03-8.982 8.981-8.982h71.847c4.95 0 8.98 4.026 8.98 8.982 0 4.954-4.03 8.98-8.98 8.98Z" id="path-2" fill-rule="evenodd" style="fill:#132737"/>
    <path d="M143.686 72.976H71.839c-9.91 0-17.961 8.059-17.961 17.961 0 9.9 8.051 17.96 17.961 17.96h71.847c9.903 0 17.961-8.06 17.961-17.96 0-9.902-8.058-17.961-17.961-17.961Zm0 26.941H71.839c-4.95 0-8.98-4.025-8.98-8.98 0-4.956 4.03-8.981 8.98-8.981h71.847c4.952 0 8.981 4.025 8.981 8.981 0 4.955-4.029 8.98-8.981 8.98Z" id="path-3" class="out-5" fill-rule="evenodd"/>
    <path d="M214.176 55.015 188.698-.012H27.043L1.351 55.015h212.825Z" id="path-4" fill-rule="evenodd" style="fill:#ccc"/>
    <path d="M188.698-.012h-18.36c7.655 16.535-4.42 35.433-22.642 35.433L5.378 46.388l-4.027 8.627h212.825L188.698-.012Z" id="path-5" class="out-7" fill-rule="evenodd"/>
    <path d="M179.61 55.015V5.266H35.916v49.749H179.61Z" id="path-6" class="out-5" fill-rule="evenodd"/>
    <path d="M35.916 55.015H179.61V43.259H35.916v11.756Z" id="path-7" class="out-7" fill-rule="evenodd"/>
  </g>
</g></svg><svg viewBox="0 0 215.55133 215.54"><g id="search" class="icon">
  <defs>
    <style>.cls-4 { fill: rgb(6, 6, 6); opacity: 0.35; }</style>
  </defs>
  <g id="group-10svg">
    <path d="M76.907 138.647c-2.088-2.088-3.96-4.305-5.729-6.577L.012 203.235l12.305 12.305 71.167-71.165c-2.272-1.768-4.489-3.64-6.577-5.728Z" id="path-1" fill-rule="evenodd" style="fill: rgb(20, 42, 59);"/>
    <path d="M77.138 138.416c-2.089-2.088-4.054-4.21-5.96-6.346L50.01 153.238l4.043 20.567 29.431-29.43a153.215 153.215 0 0 1-6.346-5.959Z" id="path-2" class="cls-4" fill-rule="evenodd"/>
    <path d="M189.389 152.487c-34.883 34.881-91.439 34.881-126.322 0-34.883-34.881-34.883-91.437 0-126.319 34.883-34.881 91.439-34.881 126.322 0 34.883 34.882 34.883 91.438 0 126.319Z" id="path-3" fill-rule="evenodd" style="fill: rgb(255, 153, 0);"/>
    <path d="M175.723 138.821c-27.336 27.334-71.655 27.334-98.99 0-27.335-27.335-27.335-71.652 0-98.987 27.335-27.334 71.654-27.334 98.99 0 27.334 27.335 27.334 71.652 0 98.987Z" id="path-4" fill-rule="evenodd" style="fill: rgb(237, 237, 237);"/>
    <path d="M80.296 50.524c27.335-27.334 71.654-27.334 98.989 0 6.489 6.487 11.386 13.951 14.794 21.898-2.962-11.935-9.027-23.258-18.356-32.587-27.336-27.334-71.655-27.334-98.989 0C55.887 60.68 50.99 91.386 61.94 116.922c-5.715-23.035.35-48.394 18.356-66.398Z" id="path-5" class="cls-4" fill-rule="evenodd"/>
  </g>
</g></svg><svg viewBox="0 0 216.88934 188.66534"><g id="store" class="icon">
   <defs>
    <style>
      .sto-4{fill:#142a3b}.sto-6{fill:#000;opacity:.35}
    </style>
  </defs>
  <g id="group-121svg">
    <path d="M19.487 62.217v113.408c0 7.195 6.366 13.033 14.221 13.033h149.286c7.855 0 14.22-5.838 14.22-13.033V62.217H19.487Z" id="path-1" fill-rule="evenodd" style="fill:#fbb713"/>
    <path d="M137.764 113.524H78.937v75.134h58.827v-75.134Z" id="path-2" class="sto-4" fill-rule="evenodd"/>
    <path d="M24.695-.006.014 47.315c0 8.229 4.288 14.902 9.564 14.902h197.745c5.284 0 9.565-6.673 9.565-14.902L192.206-.006H24.695Z" id="path-3" fill-rule="evenodd" style="fill:#ff3a2f"/>
    <path d="M78.937 113.524v9.536h39.755v65.599h19.072v-75.135H78.937Z" id="path-4" class="sto-6" fill-rule="evenodd"/>
    <path d="M20.967 60.608a3.615 3.615 0 0 1-3.346-4.98L38.506 4.351a3.614 3.614 0 1 1 6.697 2.727L24.317 58.356a3.619 3.619 0 0 1-3.35 2.252Z" id="path-5" class="sto-4" fill-rule="evenodd"/>
    <path d="M65.575 60.608a3.615 3.615 0 0 1-3.529-4.41L73.575 4.92a3.622 3.622 0 0 1 4.32-2.732 3.612 3.612 0 0 1 2.733 4.319l-11.53 51.278a3.615 3.615 0 0 1-3.523 2.823Z" id="path-6" class="sto-4" fill-rule="evenodd"/>
    <path d="M195.299 60.608a3.615 3.615 0 0 1-3.288-2.11L168.52 7.22a3.618 3.618 0 0 1 1.78-4.794 3.62 3.62 0 0 1 4.793 1.782l23.49 51.279a3.614 3.614 0 0 1-3.284 5.121Z" id="path-7" class="sto-4" fill-rule="evenodd"/>
    <path d="M151.252 60.608a3.614 3.614 0 0 1-3.511-2.771L135.415 6.558a3.614 3.614 0 1 1 7.028-1.689l12.326 51.279a3.613 3.613 0 0 1-3.517 4.46Z" id="path-8" class="sto-4" fill-rule="evenodd"/>
    <path d="M108.454 60.606a3.613 3.613 0 0 1-3.613-3.614V5.714a3.613 3.613 0 1 1 7.228 0v51.278a3.615 3.615 0 0 1-3.615 3.614Z" id="path-9" class="sto-4" fill-rule="evenodd"/>
    <path d="M9.578 62.217h197.745c5.284 0 9.565-6.672 9.565-14.902H.014c0 8.23 4.288 14.902 9.564 14.902Z" id="path-10" fill-rule="evenodd" style="fill:#010101;opacity:.25"/>
    <path d="M197.214 87.091 19.487 77.556V62.217h177.727v24.874Z" id="path-11" class="sto-6" fill-rule="evenodd"/>
  </g>
</g></svg></svg>