<svg xmlns="http://www.w3.org/2000/svg" preserveAspectRatio="xMidYMid" width="208" height="217" viewBox="0 0 208 217">
  <defs>
    <style>
      .cls-3{fill:#f0c90f}.cls-7{fill:#020403;opacity:.35}.cls-9{fill:#fff}
    </style>
  </defs>
  <g id="group-44svg">
    <path d="M207.217 79.266c0 6.027-4.885 10.913-10.911 10.913s-10.911-4.886-10.911-10.913c0-6.025 4.885-10.911 10.911-10.911s10.911 4.886 10.911 10.911Z" id="path-1" class="cls-3" fill-rule="evenodd"/>
    <path d="M32.723 10.902c0 6.026-4.885 10.912-10.911 10.912s-10.911-4.886-10.911-10.912c0-6.027 4.885-10.911 10.911-10.911s10.911 4.884 10.911 10.911Z" id="path-2" class="cls-3" fill-rule="evenodd"/>
    <path d="M145.161 177.199h24.243v-61.711h-33.287v14.707h20.293v33.794h-20.293v13.21h9.044Z" id="path-3" class="cls-3" fill-rule="evenodd"/>
    <path d="M138.55 86.836v108.56c0 11.367-7.625 21.473-18.992 21.473H47.524c-11.366 0-19.169-10.106-19.169-21.473V86.836H138.55Z" id="path-4" class="cls-3" fill-rule="evenodd"/>
    <path d="M138.55 86.836h-22.039v10.168c-2.021-1.434-3.888-3.072-5.528-4.923-5.881 6.638-14.445 10.847-24.012 10.847-11.648 0-21.815-6.225-27.441-15.51-5.625 9.285-15.793 15.51-27.442 15.51-1.265 0-2.506-.095-3.733-.238v17.824c11.362-.238 21.253-6.362 26.767-15.464 5.626 9.284 15.793 15.509 27.441 15.509 9.567 0 18.132-4.208 24.012-10.847a32.34 32.34 0 0 0 9.936 7.551v78.133c0 11.367-7.625 21.473-18.991 21.473h22.038c11.367 0 18.992-10.106 18.992-21.473V86.836Z" id="path-5" class="cls-7" fill-rule="evenodd"/>
    <path d="M134.994 43.135c-9.566 0-21.649 6.231-22.221 5.675 7.04-3.618 8.436-7.505 8.436-15.966 0-12.045-9.765-21.809-21.809-21.809s-21.808 9.764-21.808 21.809c0 1.44-9.918-4.658-17.109-4.658-9.975 0-18.367 6.706-20.963 15.849-2.389-.567-4.869-.9-7.432-.9-17.728 0-32.099 14.372-32.099 32.1 0 17.729 14.371 32.101 32.099 32.101 11.649 0 21.817-6.225 27.442-15.51 5.626 9.285 15.793 15.51 27.441 15.51 9.567 0 18.131-4.209 24.012-10.847 5.881 6.638 14.445 10.847 24.011 10.847 17.728 0 32.099-14.372 32.099-32.101 0-17.728-14.371-32.1-32.099-32.1Z" id="path-6" fill-rule="evenodd" style="fill:#ffffcf"/>
    <path d="M11.725 85.236a3.615 3.615 0 0 1-3.599-4.011c1.102-9.968 6.398-19.072 14.529-24.979a3.616 3.616 0 0 1 4.25 5.849c-6.49 4.713-10.715 11.976-11.592 19.924a3.615 3.615 0 0 1-3.588 3.217Z" id="path-7" class="cls-9" fill-rule="evenodd"/>
    <path d="M48.343 48.24a3.616 3.616 0 0 1-2.743-5.966 25.37 25.37 0 0 1 19.291-8.887 3.615 3.615 0 1 1 0 7.23c-5.31 0-10.34 2.318-13.799 6.359a3.604 3.604 0 0 1-2.749 1.264Z" id="path-8" class="cls-9" fill-rule="evenodd"/>
    <path d="M50.714 87.418c-5.625 9.285-15.793 15.51-27.441 15.51-3.382 0-6.64-.53-9.701-1.5 5.235 3.707 11.613 5.907 18.516 5.907 10.226 0 19.307-4.8 25.179-12.254-2.551-2.206-4.795-4.762-6.553-7.663Z" id="path-9" class="cls-7" fill-rule="evenodd"/>
    <path d="M112.393 28.436c0 8.461-1.396 12.348-8.437 15.966.467.453 8.573-3.597 16.734-5.114.364-1.827.519-3.913.519-6.444 0-10.334-7.207-18.943-16.856-21.194 4.869 4 8.04 9.992 8.04 16.786Z" id="path-10" class="cls-7" fill-rule="evenodd"/>
    <path d="M102.167 92.081c-5.88 6.638-14.445 10.847-24.011 10.847-3.401 0-6.65-.586-9.722-1.568 5.236 3.736 11.611 5.975 18.537 5.975 8.74 0 16.618-3.537 22.403-9.207a32.518 32.518 0 0 1-7.207-6.047Z" id="path-11" class="cls-7" fill-rule="evenodd"/>
    <path d="M144.695 44.636c8.209 5.814 13.582 15.366 13.582 26.191 0 17.728-14.37 32.101-32.099 32.101-3.378 0-6.621-.549-9.675-1.522 5.226 3.715 11.589 5.929 18.491 5.929 17.728 0 32.099-14.371 32.099-32.1 0-14.345-9.413-26.487-22.398-30.599Z" id="path-12" class="cls-7" fill-rule="evenodd"/>
    <path d="M68.026 200.649a3.616 3.616 0 0 1-3.615-3.615v-70.526a3.615 3.615 0 0 1 7.23 0v70.526a3.616 3.616 0 0 1-3.615 3.615Z" id="path-13" class="cls-7" fill-rule="evenodd"/>
    <path d="M98.881 200.649a3.617 3.617 0 0 1-3.616-3.615v-70.526a3.616 3.616 0 0 1 7.229 0v70.526a3.615 3.615 0 0 1-3.613 3.615Z" id="path-14" class="cls-7" fill-rule="evenodd"/>
  </g>
</svg>
