<svg xmlns="http://www.w3.org/2000/svg" preserveAspectRatio="xMidYMid" width="218" height="156" viewBox="0 0 218 156">
  <defs>
    <style>
      .cam-4{fill:#020403;opacity:.35}.cam-7{fill:#142a3b}
    </style>
  </defs>
  <g id="group-128svg">
    <path d="M215.24 155.428H1.616a1.625 1.625 0 0 1-1.625-1.625V27.602c0-.898.728-1.625 1.625-1.625H215.24c.897 0 1.625.727 1.625 1.625v126.201c0 .898-.728 1.625-1.625 1.625Z" id="path-1" fill-rule="evenodd" style="fill:#555"/>
    <path d="M209.532 25.977h-6.205V139.07a7.331 7.331 0 0 1-7.332 7.332H-.009v1.693a7.332 7.332 0 0 0 7.333 7.333h202.208a7.333 7.333 0 0 0 7.333-7.333V33.31a7.333 7.333 0 0 0-7.333-7.333Z" id="path-2" class="cam-4" fill-rule="evenodd"/>
    <path d="M183.586 89.434c0-29.128-23.611-52.739-52.738-52.739S78.111 60.306 78.111 89.434c0 29.128 23.61 52.738 52.737 52.738 29.127 0 52.738-23.61 52.738-52.738Z" id="path-3" fill-rule="evenodd" style="fill:#ededed"/>
    <path d="M130.848 36.412c-1.523 0-3.021.102-4.512.228 27.01 2.294 48.226 24.907 48.226 52.511 0 27.605-21.216 50.219-48.226 52.511 1.491.127 2.989.228 4.512.228 29.127 0 52.738-23.61 52.738-52.739 0-29.127-23.611-52.739-52.738-52.739Z" id="path-4" class="cam-4" fill-rule="evenodd"/>
    <path d="M94.751 88.535a3.614 3.614 0 0 1-3.615-3.614c0-18.149 14.763-32.913 32.912-32.913a3.615 3.615 0 1 1 0 7.229c-14.162 0-25.683 11.521-25.683 25.684a3.614 3.614 0 0 1-3.614 3.614Z" id="path-5" class="cam-7" fill-rule="evenodd"/>
    <path d="M65.618 61.391a3.614 3.614 0 0 1-3.615 3.615H36.235a3.614 3.614 0 0 1-3.615-3.615V50.622a3.614 3.614 0 0 1 3.615-3.614h25.768a3.614 3.614 0 0 1 3.615 3.614v10.769Z" id="path-6" class="cam-4" fill-rule="evenodd"/>
    <path d="M58.619 58.391a3.616 3.616 0 0 1-3.615 3.616H29.235a3.616 3.616 0 0 1-3.615-3.616V47.622a3.615 3.615 0 0 1 3.615-3.615h25.769a3.615 3.615 0 0 1 3.615 3.615v10.769Z" id="path-7" fill-rule="evenodd" style="fill:#ff3a2f"/>
    <path d="M180.483 26.006h-99.27L85.725.008h90.247l4.511 25.998Z" id="path-8" class="cam-7" fill-rule="evenodd"/>
    <path d="M175.972.328h-12.033l.658 2.528c1.231 7.379-4.46 14.097-11.941 14.097l-70.849 5.458-.594 3.566h99.27L175.972.328Z" id="path-9" class="cam-4" fill-rule="evenodd"/>
    <path d="M57.619 26.006H32.62v-7.998h24.999v7.998Z" id="path-10" class="cam-7" fill-rule="evenodd"/>
  </g>
</svg>
