<svg xmlns="http://www.w3.org/2000/svg" preserveAspectRatio="xMidYMid" width="170" height="217" viewBox="0 0 170 217">
  <defs>
    <style>
      .cls-4{fill:#ccc}.cls-8{fill:#020403;opacity:.35}
    </style>
  </defs>
  <g id="group-99svg">
    <path d="M137.104 23.651a32.925 32.925 0 0 0-15.636 3.924C116.99 11.685 102.421.015 85.104.015c-17.325 0-31.894 11.67-36.381 27.56a32.91 32.91 0 0 0-15.617-3.924C14.82 23.651.002 38.471.002 56.743c0 18.281 14.172 33.091 33.08 33.091v127.061h103.999V89.834c18.909 0 33.1-14.81 33.1-33.091 0-18.272-14.81-33.092-33.077-33.092Z" id="path-1" fill-rule="evenodd" style="fill:#fff"/>
    <path d="M61.445 182.691a3.616 3.616 0 0 1-3.614-3.614v-37.819a3.616 3.616 0 0 1 3.614-3.616 3.616 3.616 0 0 1 3.615 3.616v37.819a3.615 3.615 0 0 1-3.615 3.614Z" id="path-2" class="cls-4" fill-rule="evenodd"/>
    <path d="M85.082 182.691a3.615 3.615 0 0 1-3.614-3.614v-47.274a3.614 3.614 0 1 1 7.228 0v47.274a3.615 3.615 0 0 1-3.614 3.614Z" id="path-3" class="cls-4" fill-rule="evenodd"/>
    <path d="M108.718 182.691a3.616 3.616 0 0 1-3.615-3.614v-37.819a3.616 3.616 0 1 1 7.229 0v37.819a3.615 3.615 0 0 1-3.614 3.614Z" id="path-4" class="cls-4" fill-rule="evenodd"/>
    <path d="M137.081 216.895H33.082v-41.892h103.999v41.892Z" id="path-5" fill-rule="evenodd" style="fill:#ededed"/>
    <path d="M18.924 33.106c5.641 0 19.11 4.82 23.763 7.32 1.289-4.564 3.433-8.764 6.212-12.455-2.216-2.404-13.159-4.32-15.794-4.32-9.888 0-18.736 4.357-24.802 11.228a32.985 32.985 0 0 1 10.621-1.773Z" id="path-6" class="cls-8" fill-rule="evenodd"/>
    <path d="M137.104 23.651a32.923 32.923 0 0 0-15.636 3.924C116.99 11.685 102.421.015 85.104.015c-10.85 0-20.618 4.581-27.508 11.906a37.58 37.58 0 0 1 13.327-2.452c17.317 0 31.885 11.672 36.364 27.562a32.896 32.896 0 0 1 15.635-3.925c18.267 0 33.077 14.819 33.077 33.091 0 8.401-3.023 16.046-8.097 21.88 13.242-4.415 22.279-16.758 22.279-31.335 0-18.271-14.81-33.091-33.077-33.091Z" id="path-7" class="cls-8" fill-rule="evenodd"/>
    <path d="M122.899 92.622v81.726h14.181v-84.82c-4.256 1.966-9.034 3.094-14.181 3.094Z" id="path-8" class="cls-8" fill-rule="evenodd"/>
    <path d="M122.899 175.003v14.329c0 7.39-5.99 13.379-13.379 13.379H33.082v14.182H137.08v-41.89h-14.181Z" id="path-9" fill-rule="evenodd" style="fill:#020403;opacity:.25"/>
  </g>
</svg>
