<svg xmlns="http://www.w3.org/2000/svg" preserveAspectRatio="xMidYMid" width="130" height="218" viewBox="0 0 130 218">
  <defs>
    <style>
      .jar-5{fill:#142a3b}
    </style>
  </defs>
  <g id="group-154svg">
    <path d="M93.778 20.402H35.731L.009 51.658v139.695c0 14.094 11.427 25.52 25.52 25.52h78.452c14.093 0 25.518-11.426 25.518-25.52V51.658L93.778 20.402Z" id="path-1" fill-rule="evenodd" style="fill:#e6191e"/>
    <path d="M93.778 20.402H33.179l46.559 20.111c10.86 4.691 18.442 15.199 18.504 27.03l.001.229v110.185c0 14.094-11.425 25.52-25.519 25.52H3.07c4.315 7.976 12.753 13.396 22.459 13.396h78.451c14.094 0 25.519-11.426 25.519-25.52V51.658L93.778 20.402Z" id="path-2" fill-rule="evenodd" style="fill:#010101;opacity:.25"/>
    <path d="M42.911 105.427H6.765c-1.996 0-3.614-1.504-3.614-3.5 0-1.995 1.618-3.499 3.614-3.499h36.146c1.996 0 3.614 1.504 3.614 3.499 0 1.996-1.618 3.5-3.614 3.5Z" id="path-3" class="jar-5" fill-rule="evenodd"/>
    <path d="M42.911 155.426H6.765c-1.996 0-3.614-1.504-3.614-3.5s1.618-3.5 3.614-3.5h36.146c1.996 0 3.614 1.504 3.614 3.5s-1.618 3.5-3.614 3.5Z" id="path-4" class="jar-5" fill-rule="evenodd"/>
    <path d="M42.911 130.427H6.765c-1.996 0-3.614-1.504-3.614-3.5 0-1.997 1.618-3.501 3.614-3.501h36.146c1.996 0 3.614 1.504 3.614 3.501 0 1.996-1.618 3.5-3.614 3.5Z" id="path-5" class="jar-5" fill-rule="evenodd"/>
    <path d="M109.802 23.348H19.708a3.18 3.18 0 0 1-3.18-3.179V3.173a3.179 3.179 0 0 1 3.18-3.179h90.094a3.179 3.179 0 0 1 3.18 3.179v16.996a3.18 3.18 0 0 1-3.18 3.179Z" id="path-6" fill-rule="evenodd" style="fill:#53c837"/>
    <path d="M101.511.014c1.567 1.988 2.54 4.464 2.54 7.191 0 6.449-5.228 11.677-11.677 11.677h-73.1c-.07 0-.136-.019-.205-.02 2.137 2.712 5.413 4.486 9.135 4.486h73.1c6.45 0 11.677-5.229 11.677-11.678 0-6.378-5.118-11.543-11.47-11.656Z" id="path-7" fill-rule="evenodd" style="fill:#010101;opacity:.35"/>
    <path d="M22.211 84.583a5.421 5.421 0 0 1-5.421-5.423V55.084l18.348-19.427a5.418 5.418 0 0 1 7.664-.219 5.419 5.419 0 0 1 .219 7.662L27.634 59.395V79.16a5.422 5.422 0 0 1-5.423 5.423Z" id="path-8" fill-rule="evenodd" style="fill:#fff"/>
  </g>
</svg>
