<svg xmlns="http://www.w3.org/2000/svg" preserveAspectRatio="xMidYMid" width="217" height="174" viewBox="0 0 217 174">
  <defs>
    <style>
      .lug-3{fill:#142a3b}.lug-6{fill:#ff3a2f}.lug-8{fill:#020403;opacity:.45}
    </style>
  </defs>
  <g id="group-36svg">
    <path d="M154.3 36.931H86.289V10.166H154.3v26.765Zm-60.782-7.228h53.553V17.396H93.518v12.307Z" id="path-1" class="lug-3" fill-rule="evenodd"/>
    <path d="M192.586 124.939H48.003a6.427 6.427 0 0 1-6.425-6.427V35.8a6.426 6.426 0 0 1 6.425-6.426h144.583a6.426 6.426 0 0 1 6.426 6.426v82.712a6.427 6.427 0 0 1-6.426 6.427Z" id="path-2" fill-rule="evenodd" style="fill:#0cb04a"/>
    <path d="M173.672 29.374h-1.376c4.328 4.546 7 10.682 7 17.454v44.884c0 13.994-11.345 25.341-25.34 25.341H48.578c4.615 4.849 11.116 7.886 18.339 7.886h106.755c13.995 0 25.34-11.347 25.34-25.341V54.715c0-13.996-11.345-25.341-25.34-25.341Z" id="path-3" fill-rule="evenodd" style="fill:#020403;opacity:.35"/>
    <path d="M69.637 152.031a14.103 14.103 0 0 0-2.393 7.875c0 7.829 6.347 14.176 14.175 14.176 7.829 0 14.175-6.347 14.175-14.176 0-2.915-.883-5.622-2.393-7.875H69.637Z" id="path-4" class="lug-6" fill-rule="evenodd"/>
    <path d="M140.513 152.031a14.11 14.11 0 0 0-2.393 7.875c0 7.829 6.347 14.176 14.176 14.176s14.175-6.347 14.175-14.176c0-2.915-.884-5.622-2.393-7.875h-23.565Z" id="path-5" class="lug-6" fill-rule="evenodd"/>
    <path d="M69.637 152.031a14.103 14.103 0 0 0-2.393 7.875c0 1.086.148 2.133.379 3.15h27.592c.232-1.017.379-2.064.379-3.15 0-2.915-.883-5.622-2.393-7.875H69.637Z" id="path-6" class="lug-8" fill-rule="evenodd"/>
    <path d="M140.513 152.031a14.11 14.11 0 0 0-2.393 7.875c0 1.086.148 2.133.38 3.15h27.592c.231-1.017.379-2.064.379-3.15 0-2.915-.884-5.622-2.393-7.875h-23.565Z" id="path-7" class="lug-8" fill-rule="evenodd"/>
    <path d="M43.85 155.652c-18.139 0-32.844-14.705-32.844-32.844V32.381c0-5.975-2.784-11.303-7.126-14.754C-.78 13.923-1.395 7.11 2.814 2.9 5.504.21 9.54-.749 13.092.615c7.07 2.713 12.089 9.566 12.089 17.592v90.425c0 18.14 14.705 32.845 32.844 32.845h151.599a7.24 7.24 0 0 1 7.241 7.24 7.243 7.243 0 0 1-7.257 7.243l-165.758-.308Z" id="path-8" class="lug-3" fill-rule="evenodd"/>
    <path d="M170.086 124.939h-7.229V31.265h7.229v93.674Z" id="path-9" class="lug-3" fill-rule="evenodd"/>
    <path d="M77.946 124.939h-7.229V31.265h7.229v93.674Z" id="path-10" class="lug-3" fill-rule="evenodd"/>
  </g>
</svg>
