<svg xmlns="http://www.w3.org/2000/svg" preserveAspectRatio="xMidYMid" width="176" height="218" viewBox="0 0 176 218">
  <defs>
    <style>
      .nood-3{fill:#142a3b}.nood-5{fill:#0cb04a}.nood-9{fill:#e6191e}.nood-14{fill:#020403;opacity:.35}
    </style>
  </defs>
  <g id="group-147svg">
    <path d="m126.708 1.616 6.024-1.63 4.785 4.006-6.906 5.624-3.903-8Z" id="path-1" class="nood-3" fill-rule="evenodd"/>
    <path d="m131.319 6.41-26.37 119.801L137.517 3.992l-6.198 2.418Z" id="path-2" class="nood-3" fill-rule="evenodd"/>
    <path d="m131.319 6.41-26.37 119.801L126.708 1.616l4.611 4.794Z" id="path-3" class="nood-5" fill-rule="evenodd"/>
    <path d="m165.769 14.211 6.226.407 3.236 5.336-8.349 3.09-1.113-8.833Z" id="path-4" class="nood-3" fill-rule="evenodd"/>
    <path d="m168.587 20.234-63.638 104.875 70.282-105.155-6.644.28Z" id="path-5" class="nood-3" fill-rule="evenodd"/>
    <path d="m168.587 20.234-63.638 104.875 60.82-110.898 2.818 6.023Z" id="path-6" class="nood-5" fill-rule="evenodd"/>
    <path d="M110.719 190.117h-46.21l-14.06 26.749h74.328l-14.058-26.749Z" id="path-7" class="nood-9" fill-rule="evenodd"/>
    <path d="m63.558 188.39-6.348 12.075c10.465 5.516 22.1 8.614 34.373 8.614 9.251 0 18.133-1.771 26.434-4.994l-8.248-15.695H63.558Z" id="path-8" fill-rule="evenodd" style="fill:#a72425"/>
    <path d="M135.342 86.658c-.442 0-.872.025-1.31.036-4.801-2.46-11.269-3.979-18.406-3.979-9.745 0-18.25 2.823-22.938 7.03-4.549-1.928-10.266-3.087-16.494-3.087-.441 0-.872.025-1.309.036-4.802-2.46-11.269-3.979-18.407-3.979-10.543 0-19.637 3.302-24.009 8.09-12.75 1.113-22.497 7.075-22.497 14.285 0 8.001 11.995 14.487 26.791 14.487 9.745 0 18.25-2.824 22.938-7.031 4.55 1.929 10.266 3.086 16.493 3.086.443 0 .874-.022 1.311-.034 4.801 2.46 11.269 3.979 18.405 3.979 9.746 0 18.25-2.824 22.938-7.031 4.55 1.929 10.266 3.086 16.494 3.086 14.796 0 26.791-6.485 26.791-14.485 0-8.002-11.995-14.489-26.791-14.489Z" id="path-9" fill-rule="evenodd" style="fill:#fbb713"/>
    <path d="M170.009 112.639c0 52.181-36.891 94.48-82.394 94.48-45.505 0-82.395-42.299-82.395-94.48h164.789Z" id="path-10" class="nood-9" fill-rule="evenodd"/>
    <path d="M66.143 192.083a3.582 3.582 0 0 1-1.988-.599c-21.953-14.495-36.849-39.208-40.87-67.804a3.614 3.614 0 0 1 3.077-4.083c1.978-.287 3.803 1.099 4.082 3.077 3.731 26.543 17.471 49.424 37.693 62.778a3.613 3.613 0 0 1-1.994 6.631Z" id="path-11" fill-rule="evenodd" style="fill:#fff"/>
    <path d="M19.013 112.639H5.218c0 40.523 22.25 75.071 53.5 88.49l-8.269 15.737h6.222l6.883-15.737c-26.016-13.419-44.541-47.967-44.541-88.49Z" id="path-12" class="nood-14" fill-rule="evenodd"/>
    <path d="M170.008 112.639h-13.797c0 .671-.019 1.335-.028 2H21.205l134.665 7.279c-2.581 36.454-20.194 66.832-44.2 79.217l6.881 15.731h6.226l-8.267-15.731c31.248-13.425 53.498-47.973 53.498-88.496Z" id="path-13" class="nood-14" fill-rule="evenodd"/>
    <path d="M175.231 110.489a4.15 4.15 0 0 1-4.151 4.15H4.141a4.15 4.15 0 1 1 0-8.3H171.08a4.148 4.148 0 0 1 4.151 4.15Z" id="path-14" class="nood-9" fill-rule="evenodd"/>
  </g>
</svg>
