<svg xmlns="http://www.w3.org/2000/svg" preserveAspectRatio="xMidYMid" width="216" height="173" viewBox="0 0 216 173">
  <defs>
    <style>
      .out-5{fill:#cc7a00}.out-7{fill:#000;opacity:.35}
    </style>
  </defs>
  <g id="group-46svg">
    <path d="M-.007 55.015v112.256a4.487 4.487 0 0 0 4.491 4.49h206.559a4.486 4.486 0 0 0 4.49-4.49V55.015H-.007Z" id="path-1" fill-rule="evenodd" style="fill:#f59300"/>
    <path d="M147.606 80.813H75.759c-9.911 0-17.963 8.06-17.963 17.962 0 9.9 8.052 17.96 17.963 17.96h71.847c9.902 0 17.961-8.06 17.961-17.96 0-9.902-8.059-17.962-17.961-17.962Zm0 26.942H75.759c-4.951 0-8.981-4.026-8.981-8.98 0-4.956 4.03-8.982 8.981-8.982h71.847c4.95 0 8.98 4.026 8.98 8.982 0 4.954-4.03 8.98-8.98 8.98Z" id="path-2" fill-rule="evenodd" style="fill:#132737"/>
    <path d="M143.686 72.976H71.839c-9.91 0-17.961 8.059-17.961 17.961 0 9.9 8.051 17.96 17.961 17.96h71.847c9.903 0 17.961-8.06 17.961-17.96 0-9.902-8.058-17.961-17.961-17.961Zm0 26.941H71.839c-4.95 0-8.98-4.025-8.98-8.98 0-4.956 4.03-8.981 8.98-8.981h71.847c4.952 0 8.981 4.025 8.981 8.981 0 4.955-4.029 8.98-8.981 8.98Z" id="path-3" class="out-5" fill-rule="evenodd"/>
    <path d="M214.176 55.015 188.698-.012H27.043L1.351 55.015h212.825Z" id="path-4" fill-rule="evenodd" style="fill:#ccc"/>
    <path d="M188.698-.012h-18.36c7.655 16.535-4.42 35.433-22.642 35.433L5.378 46.388l-4.027 8.627h212.825L188.698-.012Z" id="path-5" class="out-7" fill-rule="evenodd"/>
    <path d="M179.61 55.015V5.266H35.916v49.749H179.61Z" id="path-6" class="out-5" fill-rule="evenodd"/>
    <path d="M35.916 55.015H179.61V43.259H35.916v11.756Z" id="path-7" class="out-7" fill-rule="evenodd"/>
  </g>
</svg>
