<svg xmlns="http://www.w3.org/2000/svg" preserveAspectRatio="xMidYMid" width="216" height="216" viewBox="0 0 216 216">
  <defs>
    <style>
      .cls-4{fill:#060606;opacity:.35}
    </style>
  </defs>
  <g id="group-10svg">
    <path d="M76.907 138.647c-2.088-2.088-3.96-4.305-5.729-6.577L.012 203.235l12.305 12.305 71.167-71.165c-2.272-1.768-4.489-3.64-6.577-5.728Z" id="path-1" fill-rule="evenodd" style="fill:#142a3b"/>
    <path d="M77.138 138.416c-2.089-2.088-4.054-4.21-5.96-6.346L50.01 153.238l4.043 20.567 29.431-29.43a153.215 153.215 0 0 1-6.346-5.959Z" id="path-2" class="cls-4" fill-rule="evenodd"/>
    <path d="M189.389 152.487c-34.883 34.881-91.439 34.881-126.322 0-34.883-34.881-34.883-91.437 0-126.319 34.883-34.881 91.439-34.881 126.322 0 34.883 34.882 34.883 91.438 0 126.319Z" id="path-3" fill-rule="evenodd" style="fill:#f90"/>
    <path d="M175.723 138.821c-27.336 27.334-71.655 27.334-98.99 0-27.335-27.335-27.335-71.652 0-98.987 27.335-27.334 71.654-27.334 98.99 0 27.334 27.335 27.334 71.652 0 98.987Z" id="path-4" fill-rule="evenodd" style="fill:#ededed"/>
    <path d="M80.296 50.524c27.335-27.334 71.654-27.334 98.989 0 6.489 6.487 11.386 13.951 14.794 21.898-2.962-11.935-9.027-23.258-18.356-32.587-27.336-27.334-71.655-27.334-98.989 0C55.887 60.68 50.99 91.386 61.94 116.922c-5.715-23.035.35-48.394 18.356-66.398Z" id="path-5" class="cls-4" fill-rule="evenodd"/>
  </g>
</svg>
