<svg xmlns="http://www.w3.org/2000/svg" preserveAspectRatio="xMidYMid" width="217" height="189" viewBox="0 0 217 189">
  <defs>
    <style>
      .sto-4{fill:#142a3b}.sto-6{fill:#000;opacity:.35}
    </style>
  </defs>
  <g id="group-121svg">
    <path d="M19.487 62.217v113.408c0 7.195 6.366 13.033 14.221 13.033h149.286c7.855 0 14.22-5.838 14.22-13.033V62.217H19.487Z" id="path-1" fill-rule="evenodd" style="fill:#fbb713"/>
    <path d="M137.764 113.524H78.937v75.134h58.827v-75.134Z" id="path-2" class="sto-4" fill-rule="evenodd"/>
    <path d="M24.695-.006.014 47.315c0 8.229 4.288 14.902 9.564 14.902h197.745c5.284 0 9.565-6.673 9.565-14.902L192.206-.006H24.695Z" id="path-3" fill-rule="evenodd" style="fill:#ff3a2f"/>
    <path d="M78.937 113.524v9.536h39.755v65.599h19.072v-75.135H78.937Z" id="path-4" class="sto-6" fill-rule="evenodd"/>
    <path d="M20.967 60.608a3.615 3.615 0 0 1-3.346-4.98L38.506 4.351a3.614 3.614 0 1 1 6.697 2.727L24.317 58.356a3.619 3.619 0 0 1-3.35 2.252Z" id="path-5" class="sto-4" fill-rule="evenodd"/>
    <path d="M65.575 60.608a3.615 3.615 0 0 1-3.529-4.41L73.575 4.92a3.622 3.622 0 0 1 4.32-2.732 3.612 3.612 0 0 1 2.733 4.319l-11.53 51.278a3.615 3.615 0 0 1-3.523 2.823Z" id="path-6" class="sto-4" fill-rule="evenodd"/>
    <path d="M195.299 60.608a3.615 3.615 0 0 1-3.288-2.11L168.52 7.22a3.618 3.618 0 0 1 1.78-4.794 3.62 3.62 0 0 1 4.793 1.782l23.49 51.279a3.614 3.614 0 0 1-3.284 5.121Z" id="path-7" class="sto-4" fill-rule="evenodd"/>
    <path d="M151.252 60.608a3.614 3.614 0 0 1-3.511-2.771L135.415 6.558a3.614 3.614 0 1 1 7.028-1.689l12.326 51.279a3.613 3.613 0 0 1-3.517 4.46Z" id="path-8" class="sto-4" fill-rule="evenodd"/>
    <path d="M108.454 60.606a3.613 3.613 0 0 1-3.613-3.614V5.714a3.613 3.613 0 1 1 7.228 0v51.278a3.615 3.615 0 0 1-3.615 3.614Z" id="path-9" class="sto-4" fill-rule="evenodd"/>
    <path d="M9.578 62.217h197.745c5.284 0 9.565-6.672 9.565-14.902H.014c0 8.23 4.288 14.902 9.564 14.902Z" id="path-10" fill-rule="evenodd" style="fill:#010101;opacity:.25"/>
    <path d="M197.214 87.091 19.487 77.556V62.217h177.727v24.874Z" id="path-11" class="sto-6" fill-rule="evenodd"/>
  </g>
</svg>
